<svg width="167" height="41" viewBox="0 0 167 41" fill="none" xmlns="http://www.w3.org/2000/svg">
<path fill-rule="evenodd" clip-rule="evenodd" d="M8.55273 3.59787C7.12207 4.59823 5.82837 5.78098 4.70532 7.1124C9.29462 6.68633 15.1252 7.38204 21.8944 10.7667C29.123 14.3809 34.9438 14.5031 38.9948 13.7217C38.6272 12.6088 38.1644 11.5392 37.6163 10.5224C32.979 11.0115 27.034 10.3641 20.1056 6.89998C15.706 4.70018 11.8278 3.79401 8.55273 3.59787ZM34.9074 6.66665C31.2453 2.575 25.9234 0 20 0C18.2605 0 16.5727 0.222107 14.9637 0.63948C17.1429 1.23409 19.4579 2.10399 21.8944 3.32227C26.967 5.85853 31.3464 6.67516 34.9074 6.66665ZM39.8609 17.6281C34.9669 18.5945 28.2088 18.396 20.1056 14.3444C12.53 10.5566 6.50043 10.6043 2.4339 11.508C2.224 11.5546 2.01904 11.6036 1.81903 11.6546C1.28662 12.8125 0.861634 14.0301 0.556702 15.2945C0.882386 15.2075 1.21893 15.1248 1.56616 15.0476C6.49957 13.9513 13.4701 13.9989 21.8944 18.2111C29.4701 21.9989 35.4996 21.9512 39.5662 21.0475C39.7055 21.0166 39.8428 20.9846 39.9778 20.9516C39.9926 20.6363 40 20.319 40 20C40 19.1975 39.9528 18.406 39.8609 17.6281ZM39.3248 25.1723C34.4783 26.0196 27.917 25.6944 20.1056 21.7888C12.53 18.001 6.50043 18.0487 2.4339 18.9524C1.53125 19.1529 0.719239 19.3972 0.00293 19.6551C0.000977 19.7698 0 19.8848 0 20C0 31.0457 8.95429 40 20 40C29.2571 40 37.0453 33.7109 39.3248 25.1723Z" fill="#1247EB"/>
<path d="M59.704 21.168C59.704 22.0107 59.5573 22.7893 59.264 23.504C58.976 24.2133 58.568 24.8293 58.04 25.352C57.512 25.8693 56.8747 26.2747 56.128 26.568C55.3867 26.856 54.5627 27 53.656 27H49.128V15.344H53.656C54.5627 15.344 55.3867 15.4907 56.128 15.784C56.8747 16.0773 57.512 16.4827 58.04 17C58.568 17.5173 58.976 18.1333 59.264 18.848C59.5573 19.5573 59.704 20.3307 59.704 21.168ZM56.936 21.168C56.936 20.592 56.8613 20.072 56.712 19.608C56.5627 19.144 56.3467 18.752 56.064 18.432C55.7867 18.1067 55.4453 17.8587 55.04 17.688C54.6347 17.512 54.1733 17.424 53.656 17.424H51.848V24.92H53.656C54.1733 24.92 54.6347 24.8347 55.04 24.664C55.4453 24.488 55.7867 24.24 56.064 23.92C56.3467 23.5947 56.5627 23.2 56.712 22.736C56.8613 22.272 56.936 21.7493 56.936 21.168ZM64.4999 27H61.7799V15.344H64.4999V27ZM72.8286 20.96H76.9726V25.88C76.3753 26.3173 75.738 26.6347 75.0606 26.832C74.3886 27.0293 73.6846 27.128 72.9486 27.128C71.9886 27.128 71.114 26.9787 70.3246 26.68C69.5406 26.376 68.8686 25.96 68.3086 25.432C67.7486 24.8987 67.3166 24.2693 67.0126 23.544C66.7086 22.8133 66.5566 22.0213 66.5566 21.168C66.5566 20.2987 66.7006 19.5013 66.9886 18.776C67.2766 18.0453 67.6873 17.416 68.2206 16.888C68.7593 16.36 69.4073 15.9493 70.1646 15.656C70.9273 15.3627 71.778 15.216 72.7166 15.216C73.202 15.216 73.658 15.256 74.0846 15.336C74.5113 15.416 74.9033 15.5253 75.2606 15.664C75.6233 15.8027 75.954 15.968 76.2526 16.16C76.5513 16.352 76.818 16.56 77.0526 16.784L76.2686 17.976C76.146 18.1627 75.986 18.2773 75.7886 18.32C75.5966 18.3627 75.3886 18.3147 75.1646 18.176C74.9513 18.048 74.7486 17.9387 74.5566 17.848C74.37 17.752 74.178 17.6747 73.9806 17.616C73.7833 17.5573 73.5753 17.5147 73.3566 17.488C73.138 17.4613 72.8926 17.448 72.6206 17.448C72.114 17.448 71.658 17.5387 71.2526 17.72C70.8473 17.896 70.5006 18.1467 70.2126 18.472C69.93 18.7973 69.7113 19.1893 69.5566 19.648C69.402 20.1013 69.3246 20.608 69.3246 21.168C69.3246 21.7867 69.41 22.336 69.5806 22.816C69.7513 23.296 69.9913 23.7013 70.3006 24.032C70.6153 24.3627 70.9886 24.616 71.4206 24.792C71.858 24.9627 72.3406 25.048 72.8686 25.048C73.194 25.048 73.4873 25.016 73.7486 24.952C74.0153 24.888 74.274 24.8027 74.5246 24.696V22.928H73.3726C73.202 22.928 73.0686 22.8827 72.9726 22.792C72.8766 22.7013 72.8286 22.5867 72.8286 22.448V20.96ZM81.9911 27H79.2711V15.344H81.9911V27ZM90.8799 22.544L89.7999 19.352C89.7199 19.1493 89.6345 18.912 89.5439 18.64C89.4532 18.3627 89.3625 18.064 89.2719 17.744C89.1919 18.0693 89.1065 18.3707 89.0159 18.648C88.9252 18.9253 88.8399 19.1653 88.7599 19.368L87.6879 22.544H90.8799ZM95.1759 27H93.0799C92.8452 27 92.6559 26.9467 92.5119 26.84C92.3679 26.728 92.2585 26.5867 92.1839 26.416L91.4959 24.384H87.0639L86.3759 26.416C86.3172 26.5653 86.2105 26.7013 86.0559 26.824C85.9065 26.9413 85.7199 27 85.4959 27H83.3839L87.8959 15.344H90.6639L95.1759 27ZM101.784 20.96H105.928V25.88C105.331 26.3173 104.694 26.6347 104.016 26.832C103.344 27.0293 102.64 27.128 101.904 27.128C100.944 27.128 100.07 26.9787 99.2803 26.68C98.4963 26.376 97.8243 25.96 97.2643 25.432C96.7043 24.8987 96.2723 24.2693 95.9683 23.544C95.6643 22.8133 95.5123 22.0213 95.5123 21.168C95.5123 20.2987 95.6563 19.5013 95.9443 18.776C96.2323 18.0453 96.6429 17.416 97.1763 16.888C97.7149 16.36 98.3629 15.9493 99.1203 15.656C99.8829 15.3627 100.734 15.216 101.672 15.216C102.158 15.216 102.614 15.256 103.04 15.336C103.467 15.416 103.859 15.5253 104.216 15.664C104.579 15.8027 104.91 15.968 105.208 16.16C105.507 16.352 105.774 16.56 106.008 16.784L105.224 17.976C105.102 18.1627 104.942 18.2773 104.744 18.32C104.552 18.3627 104.344 18.3147 104.12 18.176C103.907 18.048 103.704 17.9387 103.512 17.848C103.326 17.752 103.134 17.6747 102.936 17.616C102.739 17.5573 102.531 17.5147 102.312 17.488C102.094 17.4613 101.848 17.448 101.576 17.448C101.07 17.448 100.614 17.5387 100.208 17.72C99.8029 17.896 99.4563 18.1467 99.1683 18.472C98.8856 18.7973 98.6669 19.1893 98.5123 19.648C98.3576 20.1013 98.2803 20.608 98.2803 21.168C98.2803 21.7867 98.3656 22.336 98.5363 22.816C98.7069 23.296 98.9469 23.7013 99.2563 24.032C99.5709 24.3627 99.9443 24.616 100.376 24.792C100.814 24.9627 101.296 25.048 101.824 25.048C102.15 25.048 102.443 25.016 102.704 24.952C102.971 24.888 103.23 24.8027 103.48 24.696V22.928H102.328C102.158 22.928 102.024 22.8827 101.928 22.792C101.832 22.7013 101.784 22.5867 101.784 22.448V20.96ZM110.947 17.424V20.144H114.611V22.144H110.947V24.92H115.731V27H108.227V15.344H115.731V17.424H110.947ZM128.055 15.344V27H126.647C126.439 27 126.263 26.968 126.119 26.904C125.98 26.8347 125.841 26.7173 125.703 26.552L120.207 19.6C120.228 19.808 120.241 20.0107 120.247 20.208C120.257 20.4 120.263 20.5813 120.263 20.752V27H117.879V15.344H119.303C119.42 15.344 119.519 15.3493 119.599 15.36C119.679 15.3707 119.751 15.392 119.815 15.424C119.879 15.4507 119.94 15.4907 119.999 15.544C120.057 15.5973 120.124 15.6693 120.199 15.76L125.743 22.76C125.716 22.536 125.697 22.32 125.687 22.112C125.676 21.8987 125.671 21.6987 125.671 21.512V15.344H128.055ZM138.652 23.984C138.716 23.984 138.78 23.9973 138.844 24.024C138.908 24.0453 138.969 24.0853 139.028 24.144L140.1 25.272C139.631 25.8853 139.041 26.3493 138.332 26.664C137.628 26.9733 136.793 27.128 135.828 27.128C134.943 27.128 134.148 26.9787 133.444 26.68C132.745 26.376 132.151 25.96 131.66 25.432C131.175 24.8987 130.801 24.2693 130.54 23.544C130.279 22.8133 130.148 22.0213 130.148 21.168C130.148 20.2987 130.289 19.5013 130.572 18.776C130.855 18.0453 131.252 17.416 131.764 16.888C132.276 16.36 132.889 15.9493 133.604 15.656C134.319 15.3627 135.105 15.216 135.964 15.216C136.401 15.216 136.812 15.256 137.196 15.336C137.585 15.4107 137.948 15.5173 138.284 15.656C138.62 15.7893 138.929 15.952 139.212 16.144C139.495 16.336 139.745 16.544 139.964 16.768L139.052 17.992C138.993 18.0667 138.924 18.136 138.844 18.2C138.764 18.2587 138.652 18.288 138.508 18.288C138.412 18.288 138.321 18.2667 138.236 18.224C138.151 18.1813 138.06 18.1307 137.964 18.072C137.868 18.008 137.761 17.9413 137.644 17.872C137.532 17.7973 137.396 17.7307 137.236 17.672C137.081 17.608 136.897 17.5547 136.684 17.512C136.476 17.4693 136.231 17.448 135.948 17.448C135.5 17.448 135.089 17.5307 134.716 17.696C134.348 17.8613 134.028 18.104 133.756 18.424C133.489 18.7387 133.281 19.128 133.132 19.592C132.988 20.0507 132.916 20.576 132.916 21.168C132.916 21.7653 132.996 22.296 133.156 22.76C133.321 23.224 133.543 23.616 133.82 23.936C134.103 24.2507 134.431 24.4907 134.804 24.656C135.177 24.8213 135.577 24.904 136.004 24.904C136.249 24.904 136.473 24.8933 136.676 24.872C136.879 24.8453 137.068 24.8053 137.244 24.752C137.42 24.6933 137.585 24.6187 137.74 24.528C137.895 24.432 138.052 24.312 138.212 24.168C138.276 24.1147 138.345 24.072 138.42 24.04C138.495 24.0027 138.572 23.984 138.652 23.984ZM147.345 22.568V27H144.641V22.568L140.416 15.344H142.8C143.035 15.344 143.219 15.4 143.352 15.512C143.491 15.6187 143.606 15.7573 143.696 15.928L145.345 19.32C145.483 19.5867 145.608 19.8373 145.72 20.072C145.832 20.3013 145.931 20.528 146.016 20.752C146.096 20.5227 146.187 20.2933 146.288 20.064C146.395 19.8293 146.518 19.5813 146.656 19.32L148.288 15.928C148.326 15.8587 148.371 15.7893 148.424 15.72C148.478 15.6507 148.539 15.5893 148.609 15.536C148.683 15.4773 148.766 15.432 148.856 15.4C148.952 15.3627 149.056 15.344 149.168 15.344H151.569L147.345 22.568Z" fill="#232D4F"/>
</svg>
